HIERARCHY
ROOT Root
{
  OFFSET 0.0 0.0 0.0
  CHANNELS 6 Xposition Yposition Zposition Zrotation Yrotation Xrotation
  JOINT Hips
  {
    OFFSET 0.0 100.0 0.0
    CHANNELS 6 Xposition Yposition Zposition Zrotation Yrotation Xrotation
    JOINT Spine1
    {
      OFFSET -0.013727 5.003763 -0.053727
      CHANNELS 3 Zrotation Yrotation Xrotation
      JOINT Spine2
      {
        OFFSET -0.0 7.125301 -0.029825
        CHANNELS 3 Zrotation Yrotation Xrotation
        JOINT Chest
        {
          OFFSET -1e-06 7.550063 -0.815971
          CHANNELS 3 Zrotation Yrotation Xrotation
          JOINT Neck1
          {
            OFFSET -0.181677 26.311295 -0.553348
            CHANNELS 3 Zrotation Yrotation Xrotation
            JOINT Neck2
            {
              OFFSET -3e-06 7.709397 2.302585
              CHANNELS 3 Zrotation Yrotation Xrotation
              JOINT Head
              {
                OFFSET -5e-06 6.128916 1.953709
                CHANNELS 3 Zrotation Yrotation Xrotation
                JOINT HeadEnd
                {
                  OFFSET 0.003598 16.065403 -1.835379
                  CHANNELS 3 Zrotation Yrotation Xrotation
                }
                JOINT Jaw
                {
                  OFFSET 0.002637 0.475592 3.094941
                  CHANNELS 3 Zrotation Yrotation Xrotation
                }
                JOINT LeftEye
                {
                  OFFSET 3.206381 5.380205 7.586883
                  CHANNELS 3 Zrotation Yrotation Xrotation
                }
                JOINT RightEye
                {
                  OFFSET -3.22244 5.361869 7.558234
                  CHANNELS 3 Zrotation Yrotation Xrotation
                }
              }
            }
          }
          JOINT LeftShoulder
          {
            OFFSET 1.621652 23.237164 5.113413
            CHANNELS 3 Zrotation Yrotation Xrotation
            JOINT LeftArm
            {
              OFFSET 14.919846 2e-06 -5.502326
              CHANNELS 3 Zrotation Yrotation Xrotation
              JOINT LeftForeArm
              {
                OFFSET 28.739307 0.0 -0.002588
                CHANNELS 3 Zrotation Yrotation Xrotation
                JOINT LeftHand
                {
                  OFFSET 27.093981 -1e-06 0.002609
                  CHANNELS 3 Zrotation Yrotation Xrotation
                  JOINT LeftHandThumb1
                  {
                    OFFSET 2.276482 -1.392045 3.191413
                    CHANNELS 3 Zrotation Yrotation Xrotation
                    JOINT LeftHandThumb2
                    {
                      OFFSET 4.012836 -1.828127 1.641654
                      CHANNELS 3 Zrotation Yrotation Xrotation
                      JOINT LeftHandThumb3
                      {
                        OFFSET 2.798515 0.0 -3e-06
                        CHANNELS 3 Zrotation Yrotation Xrotation
                        JOINT LeftHandThumbEnd
                        {
                          OFFSET 3.180793 -4e-06 4e-06
                          CHANNELS 3 Zrotation Yrotation Xrotation
                        }
                      }
                    }
                  }
                  JOINT LeftHandIndex1
                  {
                    OFFSET 3.247555 -0.531998 2.296169
                    CHANNELS 3 Zrotation Yrotation Xrotation
                    JOINT LeftHandIndex2
                    {
                      OFFSET 6.364578 0.01206 0.1786
                      CHANNELS 3 Zrotation Yrotation Xrotation
                      JOINT LeftHandIndex3
                      {
                        OFFSET 3.662364 0.0 0.0
                        CHANNELS 3 Zrotation Yrotation Xrotation
                        JOINT LeftHandIndex4
                        {
                          OFFSET 2.329242 4e-06 4e-06
                          CHANNELS 3 Zrotation Yrotation Xrotation
                          JOINT LeftHandIndexEnd
                          {
                            OFFSET 2.759615 -0.180537 -0.113024
                            CHANNELS 3 Zrotation Yrotation Xrotation
                          }
                        }
                      }
                    }
                  }
                  JOINT LeftHandMiddle1
                  {
                    OFFSET 3.163495 0.240981 1.000332
                    CHANNELS 3 Zrotation Yrotation Xrotation
                    JOINT LeftHandMiddle2
                    {
                      OFFSET 6.19078 -0.259278 -1.002548
                      CHANNELS 3 Zrotation Yrotation Xrotation
                      JOINT LeftHandMiddle3
                      {
                        OFFSET 4.35652 -4e-06 -1e-06
                        CHANNELS 3 Zrotation Yrotation Xrotation
                        JOINT LeftHandMiddle4
                        {
                          OFFSET 2.996877 -8e-06 0.0
                          CHANNELS 3 Zrotation Yrotation Xrotation
                          JOINT LeftHandMiddleEnd
                          {
                            OFFSET 2.304287 -0.294569 -0.031741
                            CHANNELS 3 Zrotation Yrotation Xrotation
                          }
                        }
                      }
                    }
                  }
                  JOINT LeftHandRing1
                  {
                    OFFSET 2.882643 -0.053652 -0.322543
                    CHANNELS 3 Zrotation Yrotation Xrotation
                    JOINT LeftHandRing2
                    {
                      OFFSET 5.854541 -0.486202 -1.373841
                      CHANNELS 3 Zrotation Yrotation Xrotation
                      JOINT LeftHandRing3
                      {
                        OFFSET 4.350578 0.0 3e-06
                        CHANNELS 3 Zrotation Yrotation Xrotation
                        JOINT LeftHandRing4
                        {
                          OFFSET 2.651321 7e-06 2e-06
                          CHANNELS 3 Zrotation Yrotation Xrotation
                          JOINT LeftHandRingEnd
                          {
                            OFFSET 1.936105 0.077687 -7.1e-05
                            CHANNELS 3 Zrotation Yrotation Xrotation
                          }
                        }
                      }
                    }
                  }
                  JOINT LeftHandPinky1
                  {
                    OFFSET 2.8655 -0.310005 -1.600378
                    CHANNELS 3 Zrotation Yrotation Xrotation
                    JOINT LeftHandPinky2
                    {
                      OFFSET 5.087849 -1.331141 -1.77123
                      CHANNELS 3 Zrotation Yrotation Xrotation
                      JOINT LeftHandPinky3
                      {
                        OFFSET 3.070974 4e-06 0.0
                        CHANNELS 3 Zrotation Yrotation Xrotation
                        JOINT LeftHandPinky4
                        {
                          OFFSET 1.549672 0.0 1e-06
                          CHANNELS 3 Zrotation Yrotation Xrotation
                          JOINT LeftHandPinkyEnd
                          {
                            OFFSET 1.944893 -0.157802 0.057219
                            CHANNELS 3 Zrotation Yrotation Xrotation
                          }
                        }
                      }
                    }
                  }
                }
              }
            }
          }
          JOINT RightShoulder
          {
            OFFSET -1.380118 23.180309 5.214158
            CHANNELS 3 Zrotation Yrotation Xrotation
            JOINT RightArm
            {
              OFFSET -15.037196 1.2e-05 -5.545604
              CHANNELS 3 Zrotation Yrotation Xrotation
              JOINT RightForeArm
              {
                OFFSET -28.736639 2e-06 -0.002597
                CHANNELS 3 Zrotation Yrotation Xrotation
                JOINT RightHand
                {
                  OFFSET -27.133619 -0.0 0.002613
                  CHANNELS 3 Zrotation Yrotation Xrotation
                  JOINT RightHandThumb1
                  {
                    OFFSET -2.274032 -1.383988 3.163127
                    CHANNELS 3 Zrotation Yrotation Xrotation
                    JOINT RightHandThumb2
                    {
                      OFFSET -4.011429 -1.827466 1.640914
                      CHANNELS 3 Zrotation Yrotation Xrotation
                      JOINT RightHandThumb3
                      {
                        OFFSET -2.794935 -4e-06 -3e-06
                        CHANNELS 3 Zrotation Yrotation Xrotation
                        JOINT RightHandThumbEnd
                        {
                          OFFSET -3.183852 4e-06 1e-06
                          CHANNELS 3 Zrotation Yrotation Xrotation
                        }
                      }
                    }
                  }
                  JOINT RightHandIndex1
                  {
                    OFFSET -3.253266 -0.520057 2.282866
                    CHANNELS 3 Zrotation Yrotation Xrotation
                    JOINT RightHandIndex2
                    {
                      OFFSET -6.341917 0.012471 0.178266
                      CHANNELS 3 Zrotation Yrotation Xrotation
                      JOINT RightHandIndex3
                      {
                        OFFSET -3.654871 -8e-06 -0.0
                        CHANNELS 3 Zrotation Yrotation Xrotation
                        JOINT RightHandIndex4
                        {
                          OFFSET -2.327586 0.0 1e-06
                          CHANNELS 3 Zrotation Yrotation Xrotation
                          JOINT RightHandIndexEnd
                          {
                            OFFSET -2.76179 -0.180656 -0.113078
                            CHANNELS 3 Zrotation Yrotation Xrotation
                          }
                        }
                      }
                    }
                  }
                  JOINT RightHandMiddle1
                  {
                    OFFSET -3.168106 0.246593 1.00103
                    CHANNELS 3 Zrotation Yrotation Xrotation
                    JOINT RightHandMiddle2
                    {
                      OFFSET -6.180828 -0.258836 -1.000895
                      CHANNELS 3 Zrotation Yrotation Xrotation
                      JOINT RightHandMiddle3
                      {
                        OFFSET -4.348901 0.0 -0.0
                        CHANNELS 3 Zrotation Yrotation Xrotation
                        JOINT RightHandMiddle4
                        {
                          OFFSET -3.00024 -4e-06 -2e-06
                          CHANNELS 3 Zrotation Yrotation Xrotation
                          JOINT RightHandMiddleEnd
                          {
                            OFFSET -2.30252 -0.29437 -0.031706
                            CHANNELS 3 Zrotation Yrotation Xrotation
                          }
                        }
                      }
                    }
                  }
                  JOINT RightHandRing1
                  {
                    OFFSET -2.88569 -0.067952 -0.308858
                    CHANNELS 3 Zrotation Yrotation Xrotation
                    JOINT RightHandRing2
                    {
                      OFFSET -5.854198 -0.48613 -1.373731
                      CHANNELS 3 Zrotation Yrotation Xrotation
                      JOINT RightHandRing3
                      {
                        OFFSET -4.33881 -4e-06 -0.0
                        CHANNELS 3 Zrotation Yrotation Xrotation
                        JOINT RightHandRing4
                        {
                          OFFSET -2.654903 -4e-06 4e-06
                          CHANNELS 3 Zrotation Yrotation Xrotation
                          JOINT RightHandRingEnd
                          {
                            OFFSET -1.933568 0.077527 -5.2e-05
                            CHANNELS 3 Zrotation Yrotation Xrotation
                          }
                        }
                      }
                    }
                  }
                  JOINT RightHandPinky1
                  {
                    OFFSET -2.866425 -0.342796 -1.584145
                    CHANNELS 3 Zrotation Yrotation Xrotation
                    JOINT RightHandPinky2
                    {
                      OFFSET -5.091371 -1.332055 -1.772385
                      CHANNELS 3 Zrotation Yrotation Xrotation
                      JOINT RightHandPinky3
                      {
                        OFFSET -3.062664 -4e-06 1e-06
                        CHANNELS 3 Zrotation Yrotation Xrotation
                        JOINT RightHandPinky4
                        {
                          OFFSET -1.546529 4e-06 -2e-06
                          CHANNELS 3 Zrotation Yrotation Xrotation
                          JOINT RightHandPinkyEnd
                          {
                            OFFSET -1.945119 -0.157718 0.057211
                            CHANNELS 3 Zrotation Yrotation Xrotation
                          }
                        }
                      }
                    }
                  }
                }
              }
            }
          }
        }
      }
    }
    JOINT LeftLeg
    {
      OFFSET 10.043214 -8.434526 2.595655
      CHANNELS 3 Zrotation Yrotation Xrotation
      JOINT LeftShin
      {
        OFFSET -1e-06 -43.221752 -0.802913
        CHANNELS 3 Zrotation Yrotation Xrotation
        JOINT LeftFoot
        {
          OFFSET 1e-06 -42.155094 -3.481523
          CHANNELS 3 Zrotation Yrotation Xrotation
          JOINT LeftToeBase
          {
            OFFSET 0.0 -5.059472 13.231529
            CHANNELS 3 Zrotation Yrotation Xrotation
            JOINT LeftToeEnd
            {
              OFFSET -0.009607 -1.647619 6.513017
              CHANNELS 3 Zrotation Yrotation Xrotation
            }
          }
        }
      }
    }
    JOINT RightLeg
    {
      OFFSET -10.047278 -8.29526 2.620317
      CHANNELS 3 Zrotation Yrotation Xrotation
      JOINT RightShin
      {
        OFFSET 1e-06 -43.362206 -0.805556
        CHANNELS 3 Zrotation Yrotation Xrotation
        JOINT RightFoot
        {
          OFFSET 2e-06 -42.117393 -3.478398
          CHANNELS 3 Zrotation Yrotation Xrotation
          JOINT RightToeBase
          {
            OFFSET -0.0 -5.079609 13.284196
            CHANNELS 3 Zrotation Yrotation Xrotation
            JOINT RightToeEnd
            {
              OFFSET 0.009532 -1.634378 6.460591
              CHANNELS 3 Zrotation Yrotation Xrotation
            }
          }
        }
      }
    }
  }
}
MOTION
Frames: 4
Frame Time: 0.03333333333333333
0.0 0.0 0.0 0.0 -0.0 0.0 5.896553 96.180275 146.377029 -0.960579 0.706101 3.158904 1.16618 0.622998 5.352783 -0.531956 1.832444 -3.20611 0.509773 0.110741 10.582371 -1.608757 3.174149 -6.040638 -0.117444 0.377518 -3.585379 -3.656677 1.240675 -14.20085 7.7e-05 -2.2e-05 6e-06 0.005765 0.037768 -0.052369 0.701444 -3.684751 -10.644506 -0.701356 3.74913 -10.636651 -9.343398 -5.819757 18.113262 -43.811195 4.988536 14.238899 1.901727 -78.307358 -1.56151 9.896256 -2.675658 16.912205 -5.882099 9.861273 0.702591 -10.936856 -0.360574 7.156192 -3e-06 8.774814 -2e-06 -16.120007 18.378178 6.161533 -1.844029 2.498501 -2.507272 -10.163586 4.67894 4.6211 -20.97599 1e-06 3e-06 -21.226254 2.451698 -3.593996 1e-06 -7e-06 -2e-06 -1.36268 2.240796 -0.746322 -21.334885 0.584912 3.00832 -13.821195 -0.0 2e-06 -23.887138 -0.249074 -0.839484 -60.026047 2.595807 -1.153173 -0.294021 1.679684 0.833255 -14.218186 0.093217 1.300579 -34.212002 -0.28756 0.967167 -20.033184 0.964537 1.212841 2e-06 1e-06 1e-06 -3.440383 0.788234 0.501654 -15.928162 -3.167304 2.999703 -6.338817 1e-06 3e-06 -18.123419 3.648181 -4.905662 -4e-06 -0.0 -3e-06 6.227243 17.164265 16.169712 40.859344 -9.39924 1.026711 -4.741678 80.996712 -4.844393 -11.549109 16.003109 1.058977 2.243542 -5.255033 -3.180154 14.28288 -0.826593 6.952492 0.0 -12.690597 0.0 16.606358 -18.187584 2.49721 1.665667 -1.955921 -2.878298 4.727795 -4.170585 4.993919 11.020521 3e-06 -2e-06 12.109043 -3.735713 -2.866783 0.0 -0.0 0.0 1.291986 -1.928547 -1.498089 14.800117 0.567468 3.865604 14.242562 -1.341736 -6.660653 19.631954 0.143924 -0.648245 50.169029 -0.979025 -6.697686 0.353028 -1.511149 -0.03194 20.222782 3.684306 2.316626 18.787264 4e-06 -4e-06 10.751622 -0.479868 1.397903 -1e-06 2e-06 0.0 3.273805 0.305946 -0.580108 21.486797 11.830366 2.266126 8.162919 2e-06 -2e-06 18.399071 -3.79898 -4.940574 3e-06 -1e-06 -0.0 0.010137 7.087741 -34.195961 0.013395 0.031293 30.241171 -5.10934 5.040439 -3.055413 1.648477 -2.092347 -4.206755 -0.0 0.0 3e-06 -2.667464 -3.883095 4.058786 -0.001194 0.018963 18.292967 5.567513 -3.516627 -16.713614 -1.415265 0.725196 -5.792246 0.0 0.0 -1e-06 
0.0 0.0 0.0 0.0 -0.0 0.0 6.646717 94.84697 152.196411 0.057161 1.017205 1.889449 0.037557 0.515029 5.393013 -0.615802 1.795299 -3.123529 -0.056728 0.497708 11.215549 -0.366973 2.804327 -4.9581 -0.191184 0.67594 -3.43826 -3.68879 0.802075 -13.378489 7.7e-05 -2.2e-05 6e-06 0.02829 0.051719 -0.04552 0.700991 -3.665926 -10.608145 -0.655674 3.760887 -10.611042 -8.627967 -5.897905 18.413198 -44.058868 5.889407 13.759053 3.245967 -77.868942 -2.507893 9.087114 -2.374905 17.563288 -5.88211 9.861281 0.70259 -10.936868 -0.360572 7.156201 -2e-06 8.774819 -0.0 -16.382851 18.09868 6.107701 -1.844034 2.498504 -2.507278 -10.1636 4.678944 4.621106 -20.976021 -2e-06 1e-06 -21.226282 2.451696 -3.594 1e-06 -6e-06 -2e-06 -1.362683 2.240797 -0.746326 -21.334911 0.584913 3.008321 -13.821213 0.0 1e-06 -23.887167 -0.249076 -0.839485 -60.036018 2.544976 -0.978227 -0.294024 1.679685 0.833255 -14.218207 0.093218 1.300579 -34.212048 -0.287558 0.967168 -20.033211 0.964539 1.21284 0.0 1e-06 0.0 -3.440388 0.788234 0.501655 -15.928183 -3.167305 2.999706 -6.338825 1e-06 1e-06 -18.123444 3.648184 -4.905669 -4e-06 -1e-06 -2e-06 6.74426 16.548525 15.849862 38.355438 -10.543986 -0.66556 -4.818277 84.059837 -4.881311 -12.507765 16.583479 0.080799 2.243541 -5.255035 -3.180161 14.282887 -0.826593 6.952502 -1e-06 -12.6906 -3e-06 16.636457 -18.191917 2.515633 1.665667 -1.955923 -2.878298 4.727797 -4.170585 4.993925 11.020524 2e-06 -2e-06 12.109054 -3.735717 -2.866786 1e-06 1e-06 0.0 1.291986 -1.92855 -1.498089 14.800127 0.56747 3.865609 14.242572 -1.341736 -6.66066 19.631968 0.143925 -0.648246 50.276169 -1.118912 -6.497738 0.353029 -1.51115 -0.031944 20.222788 3.684308 2.31663 18.78727 4e-06 -0.0 10.751625 -0.47987 1.397906 -1e-06 1e-06 -0.0 3.273807 0.305947 -0.580111 21.486805 11.830372 2.266132 8.162926 -0.0 0.0 18.399078 -3.798984 -4.940575 3e-06 -2e-06 -0.0 -0.213218 4.715918 -33.138584 0.054112 0.157967 24.111834 -4.107126 4.74352 -0.318225 1.603267 -2.030954 -4.376938 0.0 -0.0 2e-06 -4.937219 -5.288808 3.431389 -0.036067 0.229327 29.884766 6.423364 -3.079977 -15.922869 -1.477611 0.786762 -12.950544 0.0 0.0 -1e-06 
0.0 0.0 0.0 0.0 -0.0 0.0 7.527541 93.488319 157.89798 1.721638 1.484149 0.181422 -1.51216 0.439081 5.769809 -0.881139 1.686117 -2.936651 -0.66004 0.467588 11.800884 0.879092 2.494792 -3.427359 -0.454134 0.943385 -3.466303 -3.526435 0.507607 -12.27716 7.7e-05 -2.3e-05 6e-06 0.021471 0.03794 -0.053989 0.664557 -3.695464 -10.636127 -0.63155 3.760623 -10.623466 -8.404659 -6.16747 18.78916 -42.496067 6.408113 14.12647 4.431582 -77.365105 -3.404155 8.424186 -2.447845 18.673147 -5.882108 9.861284 0.702588 -10.936872 -0.360576 7.156208 1e-06 8.774824 -2e-06 -16.672873 17.978802 6.010436 -1.844032 2.498505 -2.50728 -10.163602 4.678944 4.621108 -20.976025 -1e-06 6e-06 -21.226288 2.451699 -3.593998 -0.0 -5e-06 1e-06 -1.362681 2.240796 -0.746325 -21.334917 0.584911 3.008326 -13.821215 -1e-06 4e-06 -23.887171 -0.249077 -0.83948 -60.101662 2.501585 -0.882461 -0.294026 1.679688 0.833256 -14.218207 0.093213 1.30058 -34.212051 -0.287562 0.967174 -20.033215 0.964537 1.212844 -1e-06 1e-06 -0.0 -3.44039 0.788233 0.501657 -15.928189 -3.167309 2.999708 -6.338829 0.0 2e-06 -18.123451 3.648182 -4.90567 -4e-06 -0.0 -3e-06 8.267518 15.748091 16.065369 35.372711 -11.401029 -2.174979 -1.506877 86.41761 -1.798356 -12.229587 16.255613 -0.476288 2.243539 -5.255033 -3.180158 14.282887 -0.826594 6.952501 -2e-06 -12.690598 -2e-06 16.363888 -18.114824 2.620069 1.665666 -1.95592 -2.878297 4.727797 -4.170585 4.993922 11.020522 3e-06 -2e-06 12.109046 -3.735714 -2.866783 2e-06 1e-06 0.0 1.291985 -1.928549 -1.498088 14.800122 0.56747 3.865604 14.242566 -1.341735 -6.660654 19.631958 0.143926 -0.648243 50.032784 -1.147117 -6.308393 0.353028 -1.511149 -0.031941 20.222784 3.684309 2.31663 18.78727 6e-06 -2e-06 10.751625 -0.479868 1.397906 1e-06 1e-06 0.0 3.273803 0.305947 -0.580112 21.486809 11.83037 2.266134 8.162927 1e-06 -2e-06 18.399076 -3.798982 -4.940572 2e-06 -1e-06 -0.0 -2.594979 5.102524 -32.968609 0.137225 0.304163 30.088732 -1.371839 2.392122 2.216396 1.61106 -1.927745 -2.44208 0.0 -0.0 2e-06 -8.768083 -7.998634 -0.725622 0.184122 0.581304 47.707592 4.531762 -3.308925 -8.31377 -1.615738 0.837205 -21.865082 -0.0 0.0 -2e-06 
0.0 0.0 0.0 0.0 -0.0 0.0 8.277353 91.942436 163.301346 2.44672 1.982188 -2.189423 -1.8988 0.422387 7.025714 -0.999353 1.496917 -2.646241 -1.475826 0.230367 12.319909 1.624265 2.410527 -1.625549 -0.447551 0.439814 -3.662114 -3.666225 0.614338 -13.08969 7.7e-05 -2.3e-05 6e-06 0.028364 -0.059154 -0.055435 0.689535 -3.801018 -10.681148 -0.641152 3.67122 -10.63938 -7.194625 -6.860768 19.948702 -40.731819 5.800725 14.144124 4.116398 -77.539444 -2.52495 8.086308 -2.770552 19.36619 -5.8821 9.861276 0.702589 -10.936859 -0.360575 7.156198 2e-06 8.774817 -1e-06 -16.594141 18.035868 5.924336 -1.844032 2.498502 -2.507275 -10.163585 4.678938 4.621102 -20.975992 -4e-06 3e-06 -21.226255 2.451693 -3.593997 1e-06 -6e-06 3e-06 -1.362678 2.240796 -0.746323 -21.334887 0.584908 3.008321 -13.821196 -4e-06 3e-06 -23.88714 -0.24908 -0.839481 -59.891983 2.530254 -1.193095 -0.294023 1.679684 0.833255 -14.218188 0.093214 1.300579 -34.212006 -0.287565 0.967171 -20.033188 0.964536 1.212844 1e-06 1e-06 -0.0 -3.440385 0.788233 0.501654 -15.928165 -3.167308 2.999706 -6.338819 -1e-06 2e-06 -18.123421 3.648179 -4.905663 -4e-06 -1e-06 -3e-06 7.749237 14.832963 16.153446 35.133087 -11.494729 -2.96558 7.612745 87.75058 7.326413 -10.348876 15.818521 -0.214709 2.243537 -5.255029 -3.180155 14.282871 -0.826591 6.952496 -3e-06 -12.690588 -0.0 16.121349 -17.774956 2.531757 1.665663 -1.955919 -2.878296 4.727792 -4.17058 4.993916 11.020509 7e-06 -2e-06 12.109032 -3.735708 -2.866778 -0.0 -0.0 1e-06 1.291983 -1.928547 -1.498086 14.800108 0.567469 3.865604 14.242553 -1.341733 -6.660649 19.631941 0.143929 -0.648241 49.624641 -1.06293 -6.164754 0.353028 -1.511149 -0.031941 20.222763 3.684308 2.316628 18.787243 5e-06 2e-06 10.75161 -0.479867 1.397905 1e-06 -0.0 -0.0 3.273803 0.305947 -0.580111 21.486786 11.830362 2.266132 8.162913 2e-06 2e-06 18.399054 -3.79898 -4.940566 2e-06 -2e-06 -0.0 -3.878899 7.874142 -32.452782 0.262667 0.341309 41.195957 0.540311 -1.207652 -5.578628 1.586882 -1.902114 -1.49018 0.0 -0.0 2e-06 -11.373421 -10.632442 -7.05531 0.260484 0.436566 66.335716 -1.520369 -8.403207 2.135774 -1.46936 0.90815 -10.796468 0.0 -0.0 -2e-06 
